<mxfile host="Electron" agent="Mozilla/5.0 (Windows NT 10.0; Win64; x64) AppleWebKit/537.36 (KHTML, like Gecko) draw.io/25.0.2 Chrome/128.0.6613.186 Electron/32.2.5 Safari/537.36" version="25.0.2">
  <diagram name="Page-1" id="edf60f1a-56cd-e834-aa8a-f176f3a09ee4">
    <mxGraphModel dx="1430" dy="825" grid="1" gridSize="10" guides="1" tooltips="1" connect="1" arrows="1" fold="1" page="1" pageScale="1" pageWidth="1100" pageHeight="850" background="none" math="0" shadow="0">
      <root>
        <mxCell id="0" />
        <mxCell id="1" parent="0" />
        <mxCell id="60e70716793133e9-32" style="edgeStyle=orthogonalEdgeStyle;rounded=0;html=1;labelBackgroundColor=none;startSize=5;endArrow=classicThin;endFill=1;endSize=5;jettySize=auto;orthogonalLoop=1;strokeWidth=1;fontFamily=Verdana;fontSize=8;entryX=0.5;entryY=0;entryDx=0;entryDy=0;" parent="1" source="60e70716793133e9-4" target="vMSZTF8WeJHbAyBMruF_-1" edge="1">
          <mxGeometry relative="1" as="geometry">
            <mxPoint x="450" y="280" as="targetPoint" />
            <Array as="points" />
          </mxGeometry>
        </mxCell>
        <mxCell id="60e70716793133e9-4" value="&lt;font style=&quot;font-size: 20px;&quot;&gt;PC Tx&lt;/font&gt;" style="rounded=0;whiteSpace=wrap;html=1;shadow=1;labelBackgroundColor=none;strokeWidth=1;fontFamily=Verdana;fontSize=8;align=center;" parent="1" vertex="1">
          <mxGeometry x="390" y="120" width="120" height="60" as="geometry" />
        </mxCell>
        <mxCell id="vMSZTF8WeJHbAyBMruF_-1" value="SEND&amp;nbsp; 8 Bit&lt;div&gt;Serial Data&lt;/div&gt;" style="shape=hexagon;perimeter=hexagonPerimeter2;whiteSpace=wrap;html=1;fixedSize=1;" vertex="1" parent="1">
          <mxGeometry x="390" y="290" width="120" height="80" as="geometry" />
        </mxCell>
        <mxCell id="vMSZTF8WeJHbAyBMruF_-3" value="&lt;font style=&quot;font-size: 20px;&quot;&gt;PC Rx&lt;/font&gt;" style="rounded=0;whiteSpace=wrap;html=1;shadow=1;labelBackgroundColor=none;strokeWidth=1;fontFamily=Verdana;fontSize=8;align=center;" vertex="1" parent="1">
          <mxGeometry x="870" y="120" width="120" height="60" as="geometry" />
        </mxCell>
        <mxCell id="vMSZTF8WeJHbAyBMruF_-7" value="" style="edgeStyle=orthogonalEdgeStyle;rounded=0;orthogonalLoop=1;jettySize=auto;html=1;" edge="1" parent="1" source="vMSZTF8WeJHbAyBMruF_-5" target="vMSZTF8WeJHbAyBMruF_-3">
          <mxGeometry relative="1" as="geometry" />
        </mxCell>
        <mxCell id="vMSZTF8WeJHbAyBMruF_-5" value="RECEIVE 8 Bit&lt;div&gt;Serial Data&lt;/div&gt;" style="shape=hexagon;perimeter=hexagonPerimeter2;whiteSpace=wrap;html=1;fixedSize=1;" vertex="1" parent="1">
          <mxGeometry x="870" y="290" width="120" height="80" as="geometry" />
        </mxCell>
        <mxCell id="vMSZTF8WeJHbAyBMruF_-6" style="edgeStyle=orthogonalEdgeStyle;rounded=0;html=1;labelBackgroundColor=none;startSize=5;endArrow=classicThin;endFill=1;endSize=5;jettySize=auto;orthogonalLoop=1;strokeWidth=1;fontFamily=Verdana;fontSize=8" edge="1" parent="1">
          <mxGeometry relative="1" as="geometry">
            <mxPoint x="930" y="280" as="sourcePoint" />
            <mxPoint x="930" y="180" as="targetPoint" />
            <Array as="points">
              <mxPoint x="930" y="190" />
              <mxPoint x="930" y="190" />
            </Array>
          </mxGeometry>
        </mxCell>
        <mxCell id="vMSZTF8WeJHbAyBMruF_-14" style="edgeStyle=orthogonalEdgeStyle;rounded=0;orthogonalLoop=1;jettySize=auto;html=1;entryX=0.5;entryY=1;entryDx=0;entryDy=0;" edge="1" parent="1" target="vMSZTF8WeJHbAyBMruF_-15">
          <mxGeometry relative="1" as="geometry">
            <mxPoint x="590" y="710" as="targetPoint" />
            <mxPoint x="450" y="700" as="sourcePoint" />
            <Array as="points">
              <mxPoint x="450" y="740" />
              <mxPoint x="930" y="740" />
            </Array>
          </mxGeometry>
        </mxCell>
        <mxCell id="vMSZTF8WeJHbAyBMruF_-9" value="&lt;font style=&quot;font-size: 20px;&quot;&gt;FPGA Rx&lt;/font&gt;" style="rounded=0;whiteSpace=wrap;html=1;shadow=1;labelBackgroundColor=none;strokeWidth=1;fontFamily=Verdana;fontSize=8;align=center;" vertex="1" parent="1">
          <mxGeometry x="390" y="560" width="120" height="60" as="geometry" />
        </mxCell>
        <mxCell id="vMSZTF8WeJHbAyBMruF_-10" style="edgeStyle=orthogonalEdgeStyle;rounded=0;html=1;labelBackgroundColor=none;startSize=5;endArrow=classicThin;endFill=1;endSize=5;jettySize=auto;orthogonalLoop=1;strokeWidth=1;fontFamily=Verdana;fontSize=8;entryX=0.5;entryY=0;entryDx=0;entryDy=0;" edge="1" parent="1" target="vMSZTF8WeJHbAyBMruF_-9">
          <mxGeometry relative="1" as="geometry">
            <mxPoint x="450" y="430" as="sourcePoint" />
            <mxPoint x="450" y="480" as="targetPoint" />
            <Array as="points" />
          </mxGeometry>
        </mxCell>
        <mxCell id="vMSZTF8WeJHbAyBMruF_-11" value="Convert to 8 Bit&lt;div&gt;Parallel Data&lt;/div&gt;" style="shape=hexagon;perimeter=hexagonPerimeter2;whiteSpace=wrap;html=1;fixedSize=1;" vertex="1" parent="1">
          <mxGeometry x="390" y="620" width="120" height="80" as="geometry" />
        </mxCell>
        <mxCell id="vMSZTF8WeJHbAyBMruF_-15" value="&lt;font style=&quot;font-size: 20px;&quot;&gt;FPGA Tx&lt;/font&gt;" style="rounded=0;whiteSpace=wrap;html=1;shadow=1;labelBackgroundColor=none;strokeWidth=1;fontFamily=Verdana;fontSize=8;align=center;" vertex="1" parent="1">
          <mxGeometry x="870" y="640" width="120" height="60" as="geometry" />
        </mxCell>
        <mxCell id="vMSZTF8WeJHbAyBMruF_-16" value="RECEIVE&amp;nbsp; 8 Bit&lt;div&gt;Serial Data&lt;/div&gt;" style="shape=hexagon;perimeter=hexagonPerimeter2;whiteSpace=wrap;html=1;fixedSize=1;" vertex="1" parent="1">
          <mxGeometry x="390" y="370" width="120" height="80" as="geometry" />
        </mxCell>
        <mxCell id="vMSZTF8WeJHbAyBMruF_-17" value="SEND 8 Bit&lt;div&gt;Serial Data&lt;/div&gt;" style="shape=hexagon;perimeter=hexagonPerimeter2;whiteSpace=wrap;html=1;fixedSize=1;" vertex="1" parent="1">
          <mxGeometry x="870" y="370" width="120" height="80" as="geometry" />
        </mxCell>
        <mxCell id="vMSZTF8WeJHbAyBMruF_-22" value="Convert to 8 Bit&lt;div&gt;Serial Data&lt;/div&gt;" style="shape=hexagon;perimeter=hexagonPerimeter2;whiteSpace=wrap;html=1;fixedSize=1;" vertex="1" parent="1">
          <mxGeometry x="870" y="560" width="120" height="80" as="geometry" />
        </mxCell>
        <mxCell id="vMSZTF8WeJHbAyBMruF_-23" style="edgeStyle=orthogonalEdgeStyle;rounded=0;html=1;labelBackgroundColor=none;startSize=5;endArrow=classicThin;endFill=1;endSize=5;jettySize=auto;orthogonalLoop=1;strokeWidth=1;fontFamily=Verdana;fontSize=8;exitX=0.5;exitY=0;exitDx=0;exitDy=0;" edge="1" parent="1" source="vMSZTF8WeJHbAyBMruF_-22">
          <mxGeometry relative="1" as="geometry">
            <mxPoint x="930" y="550" as="sourcePoint" />
            <mxPoint x="930" y="450" as="targetPoint" />
            <Array as="points" />
          </mxGeometry>
        </mxCell>
        <mxCell id="vMSZTF8WeJHbAyBMruF_-25" value="" style="endArrow=none;html=1;rounded=0;" edge="1" parent="1">
          <mxGeometry width="50" height="50" relative="1" as="geometry">
            <mxPoint x="680" y="750" as="sourcePoint" />
            <mxPoint x="700" y="730" as="targetPoint" />
          </mxGeometry>
        </mxCell>
        <mxCell id="vMSZTF8WeJHbAyBMruF_-26" value="8" style="text;html=1;align=center;verticalAlign=middle;resizable=0;points=[];autosize=1;strokeColor=none;fillColor=none;" vertex="1" parent="1">
          <mxGeometry x="679" y="737" width="30" height="30" as="geometry" />
        </mxCell>
      </root>
    </mxGraphModel>
  </diagram>
</mxfile>
